<svg width="24" height="24" viewBox="0 0 24 24" fill="none" xmlns="http://www.w3.org/2000/svg">
<path d="M10.275 6.3C10.475 6.5 10.571 6.74167 10.563 7.025C10.5543 7.30833 10.45 7.55 10.25 7.75L7.425 10.575H18.575C18.8583 10.575 19.096 10.671 19.288 10.863C19.4793 11.0543 19.575 11.2917 19.575 11.575C19.575 11.8583 19.4793 12.096 19.288 12.288C19.096 12.4793 18.8583 12.575 18.575 12.575H7.425L10.275 15.425C10.475 15.625 10.575 15.8627 10.575 16.138C10.575 16.4127 10.475 16.65 10.275 16.85C10.075 17.05 9.83733 17.15 9.562 17.15C9.28733 17.15 9.05 17.05 8.85 16.85L4.275 12.275C4.175 12.175 4.104 12.0667 4.062 11.95C4.02067 11.8333 4 11.7083 4 11.575C4 11.4417 4.02067 11.3167 4.062 11.2C4.104 11.0833 4.175 10.975 4.275 10.875L8.875 6.275C9.05833 6.09167 9.28733 6 9.562 6C9.83734 6 10.075 6.1 10.275 6.3Z" fill="#222222"/>
</svg>
