<svg width="24" height="24" viewBox="0 0 24 24" fill="none" xmlns="http://www.w3.org/2000/svg">
<path d="M17.0629 10.0625C16.8629 10.2625 16.6212 10.3585 16.3379 10.3505C16.0546 10.3418 15.8129 10.2375 15.6129 10.0375L12.7879 7.21248V18.3625C12.7879 18.6458 12.6919 18.8835 12.4999 19.0755C12.3086 19.2668 12.0712 19.3625 11.7879 19.3625C11.5046 19.3625 11.2669 19.2668 11.0749 19.0755C10.8836 18.8835 10.7879 18.6458 10.7879 18.3625V7.21248L7.93789 10.0625C7.73789 10.2625 7.50022 10.3625 7.22489 10.3625C6.95022 10.3625 6.71289 10.2625 6.51289 10.0625C6.31289 9.86248 6.21289 9.6248 6.21289 9.34947C6.21289 9.0748 6.31289 8.83748 6.51289 8.63748L11.0879 4.06248C11.1879 3.96248 11.2962 3.89148 11.4129 3.84948C11.5296 3.80814 11.6546 3.78748 11.7879 3.78748C11.9212 3.78748 12.0462 3.80814 12.1629 3.84948C12.2796 3.89148 12.3879 3.96248 12.4879 4.06248L17.0879 8.66248C17.2712 8.84581 17.3629 9.0748 17.3629 9.34947C17.3629 9.6248 17.2629 9.86248 17.0629 10.0625Z" fill="#222222"/>
</svg>
