<svg width="24" height="24" viewBox="0 0 24 24" fill="none" xmlns="http://www.w3.org/2000/svg">
<path d="M6.51289 13.0875C6.71289 12.8875 6.95456 12.7915 7.23789 12.7995C7.52123 12.8081 7.76289 12.9125 7.96289 13.1125L10.7879 15.9375V4.78748C10.7879 4.50414 10.8839 4.26648 11.0759 4.07448C11.2672 3.88314 11.5046 3.78748 11.7879 3.78748C12.0712 3.78748 12.3089 3.88314 12.5009 4.07448C12.6922 4.26648 12.7879 4.50414 12.7879 4.78748V15.9375L15.6379 13.0875C15.8379 12.8875 16.0756 12.7875 16.3509 12.7875C16.6256 12.7875 16.8629 12.8875 17.0629 13.0875C17.2629 13.2875 17.3629 13.5251 17.3629 13.8005C17.3629 14.0751 17.2629 14.3125 17.0629 14.5125L12.4879 19.0875C12.3879 19.1875 12.2796 19.2585 12.1629 19.3005C12.0462 19.3418 11.9212 19.3625 11.7879 19.3625C11.6546 19.3625 11.5296 19.3418 11.4129 19.3005C11.2962 19.2585 11.1879 19.1875 11.0879 19.0875L6.48789 14.4875C6.30456 14.3041 6.21289 14.0751 6.21289 13.8005C6.21289 13.5251 6.31289 13.2875 6.51289 13.0875Z" fill="#222222"/>
</svg>
