<svg width="24" height="24" viewBox="0 0 24 24" fill="none" xmlns="http://www.w3.org/2000/svg">
<path d="M3.3252 15.75L11.7252 7.32505C11.8252 7.22505 11.9335 7.15438 12.0502 7.11305C12.1669 7.07105 12.2919 7.05005 12.4252 7.05005C12.5585 7.05005 12.6835 7.07105 12.8002 7.11305C12.9169 7.15438 13.0252 7.22505 13.1252 7.32505L21.5502 15.75C21.7835 15.9834 21.9002 16.275 21.9002 16.625C21.9002 16.975 21.7752 17.275 21.5252 17.525C21.2752 17.775 20.9835 17.9 20.6502 17.9C20.3169 17.9 20.0252 17.775 19.7752 17.525L12.4252 10.175L5.0752 17.525C4.84186 17.7584 4.55453 17.875 4.2132 17.875C3.8712 17.875 3.5752 17.75 3.3252 17.5C3.0752 17.25 2.9502 16.9584 2.9502 16.625C2.9502 16.2917 3.0752 16 3.3252 15.75Z" fill="#222222"/>
</svg>
