<svg width="24" height="24" viewBox="0 0 24 24" fill="none" xmlns="http://www.w3.org/2000/svg">
<path d="M21.5252 9.20005L13.1252 17.625C13.0252 17.725 12.9169 17.7957 12.8002 17.837C12.6835 17.879 12.5585 17.9 12.4252 17.9C12.2919 17.9 12.1669 17.879 12.0502 17.837C11.9335 17.7957 11.8252 17.725 11.7252 17.625L3.3002 9.20005C3.06686 8.96672 2.9502 8.67505 2.9502 8.32505C2.9502 7.97505 3.0752 7.67505 3.3252 7.42505C3.5752 7.17505 3.86686 7.05005 4.2002 7.05005C4.53353 7.05005 4.8252 7.17505 5.0752 7.42505L12.4252 14.775L19.7752 7.42505C20.0085 7.19171 20.2959 7.07505 20.6372 7.07505C20.9792 7.07505 21.2752 7.20005 21.5252 7.45005C21.7752 7.70005 21.9002 7.99171 21.9002 8.32505C21.9002 8.65838 21.7752 8.95005 21.5252 9.20005Z" fill="#222222"/>
</svg>
