<svg width="24" height="24" viewBox="0 0 24 24" fill="none" xmlns="http://www.w3.org/2000/svg">
<path d="M9.15 3.375L17.575 11.775C17.675 11.875 17.7457 11.9833 17.787 12.1C17.829 12.2167 17.85 12.3417 17.85 12.475C17.85 12.6083 17.829 12.7333 17.787 12.85C17.7457 12.9667 17.675 13.075 17.575 13.175L9.15 21.6C8.91667 21.8333 8.625 21.95 8.275 21.95C7.925 21.95 7.625 21.825 7.375 21.575C7.125 21.325 7 21.0333 7 20.7C7 20.3667 7.125 20.075 7.375 19.825L14.725 12.475L7.375 5.125C7.14167 4.89167 7.025 4.60433 7.025 4.263C7.025 3.921 7.15 3.625 7.4 3.375C7.65 3.125 7.94167 3 8.275 3C8.60833 3 8.9 3.125 9.15 3.375Z" fill="#222222"/>
</svg>
