<svg width="24" height="24" viewBox="0 0 24 24" fill="none" xmlns="http://www.w3.org/2000/svg">
<path d="M15.7 21.575L7.275 13.175C7.175 13.075 7.10433 12.9667 7.063 12.85C7.021 12.7333 7 12.6083 7 12.475C7 12.3417 7.021 12.2167 7.063 12.1C7.10433 11.9833 7.175 11.875 7.275 11.775L15.7 3.35C15.9333 3.11667 16.225 3 16.575 3C16.925 3 17.225 3.125 17.475 3.375C17.725 3.625 17.85 3.91667 17.85 4.25C17.85 4.58333 17.725 4.875 17.475 5.125L10.125 12.475L17.475 19.825C17.7083 20.0583 17.825 20.3457 17.825 20.687C17.825 21.029 17.7 21.325 17.45 21.575C17.2 21.825 16.9083 21.95 16.575 21.95C16.2417 21.95 15.95 21.825 15.7 21.575Z" fill="#222222"/>
</svg>
